<svg width="25" height="13" viewBox="0 0 25 13" fill="none" xmlns="http://www.w3.org/2000/svg">
<path fill-rule="evenodd" clip-rule="evenodd" d="M0.282455 0.272733C0.371763 0.18628 0.477858 0.117689 0.594662 0.0708892C0.711465 0.0240891 0.836684 0 0.963144 0C1.08961 0 1.21482 0.0240891 1.33163 0.0708892C1.44843 0.117689 1.55453 0.18628 1.64383 0.272733L12.5003 10.7573L23.3567 0.272733C23.4461 0.18642 23.5522 0.117953 23.669 0.0712406C23.7858 0.0245285 23.9109 0.000486045 24.0374 0.000486045C24.1638 0.000486045 24.289 0.0245285 24.4057 0.0712406C24.5225 0.117953 24.6287 0.18642 24.718 0.272733C24.8074 0.359045 24.8783 0.461513 24.9267 0.574286C24.9751 0.687059 25 0.807929 25 0.929994C25 1.05206 24.9751 1.17293 24.9267 1.2857C24.8783 1.39847 24.8074 1.50094 24.718 1.58725L13.1809 12.7273C13.0916 12.8137 12.9855 12.8823 12.8687 12.9291C12.7519 12.9759 12.6267 13 12.5003 13C12.3738 13 12.2486 12.9759 12.1318 12.9291C12.015 12.8823 11.9089 12.8137 11.8196 12.7273L0.282455 1.58725C0.192921 1.50102 0.121885 1.39858 0.073417 1.28579C0.0249487 1.17301 0 1.0521 0 0.929994C0 0.807885 0.0249487 0.686977 0.073417 0.574193C0.121885 0.46141 0.192921 0.358967 0.282455 0.272733Z" fill="#E74518"/>
</svg>
