<svg width="343" height="288" viewBox="0 0 343 288" fill="none" xmlns="http://www.w3.org/2000/svg">
<path fill-rule="evenodd" clip-rule="evenodd" d="M153.001 103.492C136.371 111.815 130.829 124.638 121.665 132.594C113.199 139.951 85.5071 121.644 85.5071 121.644C85.5071 121.644 75.1199 112.713 74.1195 116.241C73.8451 117.216 76.389 119.825 74.1195 121.647C68.1856 126.412 69.4604 118.75 58.3129 125.106C66.3105 132.754 80.685 132.594 80.685 132.594C80.685 132.594 101.942 146.053 121.665 148.374C134.33 138.665 127.733 142.392 139.758 129.446V227.44H205.591C207.621 196.795 206.335 160.433 206.335 133.555C214.792 142.951 221.598 143.147 221.598 143.147C221.598 143.147 257.75 128.759 258.651 130.98C259.151 132.209 269.544 143.147 273.585 134.399C275.718 135.805 260.714 127.29 267.211 126.46C275.712 122.702 259.454 121.647 259.454 121.647C259.454 121.647 235.584 126.127 221.595 130.98C207.301 112.922 207.043 103.492 192.629 103.492H153.001ZM154.247 228.096V271.319C154.247 271.319 144.709 271.319 136.563 284.481C149.271 284.481 167.132 284.042 167.132 284.042L167.424 228.096H154.247ZM190.574 228.096V271.319C190.574 271.319 200.109 271.319 208.258 284.481C195.55 284.481 177.688 284.042 177.688 284.042L177.397 228.096H190.574Z" fill="white" stroke="#7A726A"/>
<path d="M192.131 102.653C192.131 102.653 188.761 118.621 202.942 131.443M179.904 102.653C179.904 102.653 179.904 166.164 142.917 171.089L179.904 102.653Z" stroke="#7A726A"/>
<path fill-rule="evenodd" clip-rule="evenodd" d="M178.832 103.543C178.832 103.543 177.551 169.395 139.718 174.266V227.149C166.158 227.189 206.246 227.189 206.246 227.189V132.702C188.753 122.46 191.683 103.543 191.683 103.543H178.832Z" fill="#AF492C" stroke="#7A726A"/>
<path d="M168.988 218.512C174.958 218.512 179.798 213.684 179.798 207.728C179.798 201.772 174.958 196.943 168.988 196.943C163.017 196.943 158.177 201.772 158.177 207.728C158.177 213.684 163.017 218.512 168.988 218.512Z" fill="#7A726A" stroke="#9B959A"/>
<path fill-rule="evenodd" clip-rule="evenodd" d="M156.851 167.739C156.851 167.739 166.172 199.085 140.187 191.868V174.916C149.302 171.286 156.851 167.739 156.851 167.739Z" fill="#7A726A" stroke="#9B959A"/>
<path d="M177.397 184.964C181.376 184.964 184.603 181.746 184.603 177.776C184.603 173.806 181.376 170.587 177.397 170.587C173.417 170.587 170.191 173.806 170.191 177.776C170.191 181.746 173.417 184.964 177.397 184.964Z" fill="#7A726A" stroke="#9B959A"/>
<path d="M191.808 141.833C194.462 141.833 196.613 139.687 196.613 137.04C196.613 134.392 194.462 132.246 191.808 132.246C189.155 132.246 187.004 134.392 187.004 137.04C187.004 139.687 189.155 141.833 191.808 141.833Z" fill="#7A726A" stroke="#9B959A"/>
<path fill-rule="evenodd" clip-rule="evenodd" d="M205.857 143.281C205.857 143.281 178.189 163.789 205.857 180.562V143.281Z" fill="#7A726A" stroke="#9B959A"/>
<path fill-rule="evenodd" clip-rule="evenodd" d="M76.7691 193.75C76.5324 193.75 76.298 193.703 76.0794 193.613C75.8607 193.522 75.6621 193.39 75.4948 193.223C75.3276 193.056 75.195 192.857 75.1046 192.639C75.0143 192.421 74.968 192.187 74.9684 191.951V185.697C74.9684 185.221 75.1581 184.764 75.4958 184.427C75.8335 184.09 76.2916 183.901 76.7691 183.901C77.2467 183.901 77.7048 184.09 78.0425 184.427C78.3802 184.764 78.5699 185.221 78.5699 185.697V191.951C78.5703 192.187 78.524 192.421 78.4336 192.639C78.3433 192.857 78.2107 193.056 78.0435 193.223C77.8762 193.39 77.6776 193.522 77.4589 193.613C77.2403 193.703 77.0059 193.75 76.7691 193.75ZM67.571 197.557C67.3342 197.557 67.0996 197.51 66.8808 197.42C66.662 197.329 66.4633 197.197 66.2962 197.029L61.8715 192.609C61.7039 192.442 61.5709 192.244 61.48 192.026C61.3892 191.808 61.3423 191.574 61.342 191.338C61.3418 191.102 61.3881 190.868 61.4785 190.65C61.5689 190.431 61.7014 190.233 61.8687 190.066C62.0359 189.899 62.2345 189.766 62.4531 189.675C62.6717 189.585 62.9061 189.538 63.1429 189.538C63.3796 189.537 63.6141 189.584 63.833 189.674C64.0518 189.764 64.2507 189.896 64.4183 190.063L68.843 194.483C69.0944 194.735 69.2656 195.055 69.335 195.404C69.4044 195.752 69.3688 196.114 69.2329 196.442C69.0969 196.771 68.8666 197.052 68.5709 197.25C68.2752 197.448 67.9273 197.555 67.571 197.557ZM63.7609 206.747H57.5011C57.0228 206.747 56.564 206.557 56.2258 206.22C55.8875 205.882 55.6975 205.425 55.6975 204.948C55.6975 204.47 55.8875 204.013 56.2258 203.675C56.564 203.338 57.0228 203.148 57.5011 203.148H63.7609C64.2392 203.148 64.698 203.338 65.0362 203.675C65.3745 204.013 65.5645 204.47 65.5645 204.948C65.5645 205.425 65.3745 205.882 65.0362 206.22C64.698 206.557 64.2392 206.747 63.7609 206.747ZM63.1463 220.357C62.7898 220.356 62.4415 220.25 62.1454 220.052C61.8492 219.854 61.6185 219.573 61.4822 219.244C61.3459 218.915 61.3101 218.554 61.3794 218.205C61.4487 217.856 61.6199 217.535 61.8715 217.283L66.2962 212.863C66.6412 212.561 67.0888 212.401 67.5479 212.416C68.0071 212.431 68.4432 212.62 68.7677 212.944C69.0921 213.268 69.2805 213.704 69.2945 214.162C69.3085 214.62 69.147 215.066 68.843 215.41L64.4183 219.83C64.2516 219.997 64.0534 220.13 63.8351 220.22C63.6168 220.311 63.3827 220.357 63.1463 220.357ZM76.7691 225.997C76.5322 225.997 76.2976 225.951 76.0787 225.86C75.8599 225.769 75.6611 225.637 75.4938 225.469C75.3265 225.302 75.194 225.103 75.1038 224.884C75.0137 224.666 74.9676 224.432 74.9684 224.195V217.945C74.9684 217.468 75.1581 217.011 75.4958 216.674C75.8335 216.338 76.2916 216.148 76.7691 216.148C77.2467 216.148 77.7048 216.338 78.0425 216.674C78.3802 217.011 78.5699 217.468 78.5699 217.945V224.195C78.5706 224.432 78.5246 224.666 78.4345 224.884C78.3443 225.103 78.2118 225.302 78.0445 225.469C77.8772 225.637 77.6784 225.769 77.4596 225.86C77.2407 225.951 77.0061 225.997 76.7691 225.997ZM90.3891 220.357C90.1527 220.357 89.9187 220.31 89.7004 220.22C89.4821 220.129 89.2839 219.997 89.1171 219.83L84.6924 215.41C84.3932 215.065 84.2357 214.621 84.2518 214.166C84.2678 213.71 84.4562 213.278 84.779 212.955C85.1018 212.633 85.5351 212.445 85.9915 212.428C86.448 212.411 86.8938 212.568 87.2392 212.866L91.6639 217.286C91.9146 217.538 92.0849 217.859 92.1537 218.207C92.2224 218.555 92.1864 218.916 92.0502 219.244C91.914 219.573 91.6837 219.853 91.3882 220.051C91.0926 220.249 90.7451 220.356 90.3891 220.357Z" fill="#7A726A"/>
<path fill-rule="evenodd" clip-rule="evenodd" d="M96.0343 206.75H89.7745C89.2958 206.75 88.8367 206.56 88.4982 206.222C88.1597 205.885 87.9695 205.427 87.9695 204.949C87.9695 204.471 88.1597 204.013 88.4982 203.676C88.8367 203.338 89.2958 203.148 89.7745 203.148H96.0343C96.513 203.148 96.9721 203.338 97.3106 203.676C97.6491 204.013 97.8393 204.471 97.8393 204.949C97.8393 205.427 97.6491 205.885 97.3106 206.222C96.9721 206.56 96.513 206.75 96.0343 206.75" fill="#7A726A"/>
<path fill-rule="evenodd" clip-rule="evenodd" d="M85.9672 197.557C85.6107 197.556 85.2624 197.449 84.9663 197.251C84.6701 197.053 84.4394 196.772 84.3031 196.443C84.1668 196.115 84.131 195.753 84.2003 195.404C84.2695 195.055 84.4408 194.735 84.6924 194.483L89.1171 190.063C89.4621 189.76 89.9097 189.6 90.3688 189.615C90.828 189.63 91.2641 189.819 91.5886 190.144C91.913 190.468 92.1014 190.903 92.1154 191.362C92.1294 191.82 91.9679 192.266 91.6639 192.609L87.2392 197.029C87.0725 197.196 86.8743 197.329 86.656 197.42C86.4377 197.51 86.2036 197.557 85.9672 197.557" fill="#7A726A"/>
<path fill-rule="evenodd" clip-rule="evenodd" d="M288.14 71.5437C287.903 71.5437 287.669 71.4972 287.45 71.4067C287.232 71.3163 287.033 71.1837 286.866 71.0166C286.698 70.8494 286.566 70.6511 286.476 70.4328C286.385 70.2145 286.339 69.9806 286.339 69.7444V63.4911C286.339 63.0147 286.529 62.5578 286.867 62.2209C287.204 61.884 287.662 61.6947 288.14 61.6947C288.618 61.6947 289.076 61.884 289.413 62.2209C289.751 62.5578 289.941 63.0147 289.941 63.4911V69.7444C289.941 70.2209 289.751 70.6778 289.413 71.0147C289.076 71.3516 288.618 71.5409 288.14 71.5409V71.5437ZM278.945 75.3505C278.708 75.3508 278.473 75.3044 278.254 75.2138C278.036 75.1233 277.837 74.9904 277.67 74.8229L273.245 70.4031C272.907 70.0662 272.716 69.609 272.716 69.132C272.715 68.655 272.905 68.1973 273.242 67.8596C273.58 67.5219 274.038 67.3319 274.517 67.3314C274.995 67.3309 275.454 67.5199 275.792 67.8568L280.217 72.2766C280.468 72.5286 280.64 72.8492 280.709 73.1981C280.778 73.5471 280.742 73.9086 280.606 74.2373C280.47 74.566 280.239 74.8471 279.943 75.0451C279.647 75.2432 279.298 75.3495 278.942 75.3505H278.945ZM275.132 84.5408H268.875C268.397 84.5408 267.938 84.3512 267.6 84.0138C267.261 83.6764 267.071 83.2187 267.071 82.7415C267.071 82.2643 267.261 81.8067 267.6 81.4692C267.938 81.1318 268.397 80.9422 268.875 80.9422H275.135C275.613 80.9422 276.072 81.1318 276.41 81.4692C276.748 81.8067 276.938 82.2643 276.938 82.7415C276.938 83.2187 276.748 83.6764 276.41 84.0138C276.072 84.3512 275.613 84.5408 275.135 84.5408H275.132ZM274.517 98.1509C274.161 98.1499 273.812 98.0437 273.516 97.8456C273.22 97.6475 272.989 97.3664 272.853 97.0378C272.717 96.7091 272.681 96.3475 272.75 95.9986C272.82 95.6497 272.991 95.329 273.242 95.077L277.67 90.6572C278.015 90.3547 278.463 90.1946 278.922 90.2096C279.381 90.2246 279.817 90.4135 280.141 90.7379C280.466 91.0623 280.654 91.4978 280.668 91.9559C280.682 92.4139 280.521 92.8601 280.217 93.2036L275.792 97.6234C275.625 97.791 275.426 97.924 275.208 98.0145C274.989 98.1051 274.754 98.1514 274.517 98.1509V98.1509ZM288.14 103.788C287.904 103.788 287.669 103.742 287.451 103.652C287.232 103.561 287.034 103.429 286.867 103.262C286.699 103.095 286.567 102.897 286.476 102.679C286.386 102.461 286.339 102.228 286.339 101.992V95.7386C286.339 95.2621 286.529 94.8052 286.867 94.4683C287.204 94.1314 287.662 93.9421 288.14 93.9421C288.618 93.9421 289.076 94.1314 289.413 94.4683C289.751 94.8052 289.941 95.2621 289.941 95.7386V101.989C289.941 102.225 289.895 102.459 289.804 102.677C289.714 102.896 289.582 103.094 289.414 103.261C289.247 103.428 289.048 103.561 288.83 103.651C288.611 103.742 288.377 103.788 288.14 103.788V103.788ZM301.763 98.1509C301.526 98.1513 301.291 98.1048 301.073 98.0143C300.854 97.9237 300.655 97.7909 300.488 97.6234L296.066 93.2036C295.766 92.8597 295.609 92.4153 295.624 91.9599C295.64 91.5045 295.828 91.0719 296.15 90.7491C296.472 90.4264 296.905 90.2374 297.362 90.2204C297.818 90.2033 298.264 90.3594 298.61 90.6572L303.038 95.077C303.289 95.329 303.461 95.6497 303.53 95.9986C303.599 96.3475 303.563 96.7091 303.427 97.0378C303.291 97.3664 303.06 97.6475 302.764 97.8456C302.468 98.0437 302.119 98.1499 301.763 98.1509" fill="#7A726A"/>
<path fill-rule="evenodd" clip-rule="evenodd" d="M307.405 84.5408H301.145C300.667 84.5408 300.208 84.3511 299.869 84.0134C299.531 83.6757 299.34 83.2177 299.34 82.7401C299.34 82.2625 299.531 81.8045 299.869 81.4668C300.208 81.1291 300.667 80.9394 301.145 80.9394H307.405C307.884 80.9394 308.343 81.1291 308.682 81.4668C309.02 81.8045 309.21 82.2625 309.21 82.7401C309.21 83.2177 309.02 83.6757 308.682 84.0134C308.343 84.3511 307.884 84.5408 307.405 84.5408" fill="#7A726A"/>
<path fill-rule="evenodd" clip-rule="evenodd" d="M297.338 75.3504C296.982 75.3494 296.633 75.2432 296.337 75.0451C296.041 74.847 295.81 74.566 295.674 74.2373C295.538 73.9086 295.502 73.547 295.571 73.1981C295.64 72.8492 295.812 72.5286 296.063 72.2766L300.491 67.8568C300.836 67.5542 301.283 67.3941 301.743 67.4091C302.202 67.4241 302.638 67.613 302.962 67.9374C303.287 68.2618 303.475 68.6973 303.489 69.1554C303.503 69.6134 303.342 70.0596 303.038 70.4031L298.613 74.8229C298.446 74.9905 298.247 75.1235 298.028 75.214C297.81 75.3046 297.575 75.3509 297.338 75.3504" fill="#7A726A"/>
<path d="M256.687 167.924V178.574M251.35 173.248H262.026H251.35Z" stroke="#7A726A" stroke-linecap="square"/>
<path d="M165.935 3.73828V14.3886M160.595 9.06486H171.274H160.595Z" stroke="#7A726A" stroke-linecap="square"/>
<path d="M114.948 55.1249C114.948 59.7484 111.189 63.4987 106.55 63.4987C101.911 63.4987 98.1521 59.7484 98.1521 55.1249C98.1521 50.5015 101.911 46.7511 106.55 46.7511C111.189 46.7511 114.948 50.5015 114.948 55.1249Z" fill="#2D2723" stroke="#7A726A"/>
<path d="M249.455 45.1846C255.342 45.1846 260.114 40.4163 260.114 34.5343C260.114 28.6523 255.342 23.884 249.455 23.884C243.569 23.884 238.797 28.6523 238.797 34.5343C238.797 40.4163 243.569 45.1846 249.455 45.1846Z" fill="#AF492C"/>
<path d="M4.05884 284.407H340.333" stroke="#7A726A" stroke-linecap="square"/>
<path fill-rule="evenodd" clip-rule="evenodd" d="M198.42 64.9597C198.42 64.9597 208.787 69.8842 198.42 77.6659Z" fill="#E5D4C3"/>
<path fill-rule="evenodd" clip-rule="evenodd" d="M199.183 78.6839L197.657 76.6507C199.646 75.1566 201.973 72.8896 201.741 70.5799C201.47 67.8853 197.911 66.1259 197.874 66.1117L198.966 63.8134C199.166 63.9075 203.853 66.1801 204.271 70.3261C204.554 73.1263 202.842 75.9379 199.183 78.681" fill="#757575"/>
<path fill-rule="evenodd" clip-rule="evenodd" d="M143.248 77.6659C132.878 69.8813 143.248 64.9597 143.248 64.9597Z" fill="#E5D4C3"/>
<path fill-rule="evenodd" clip-rule="evenodd" d="M142.485 78.6839C138.826 75.9379 137.117 73.1263 137.397 70.329C137.815 66.1773 142.505 63.9046 142.702 63.8105L143.797 66.106C143.763 66.1231 140.196 67.8654 139.93 70.5857C139.701 72.8925 142.025 75.1566 144.014 76.6479L142.485 78.681V78.6839Z" fill="#757575"/>
<path fill-rule="evenodd" clip-rule="evenodd" d="M172.981 39.1224H169.959C155.999 39.1224 144.646 50.4656 144.646 64.4122V88.627C144.646 101.941 155.485 112.771 168.81 112.771H172.983C186.306 112.771 197.148 101.941 197.148 88.627V63.2659C197.148 49.9495 186.306 39.1224 172.981 39.1224" fill="white"/>
<path fill-rule="evenodd" clip-rule="evenodd" d="M198.42 88.6242C198.42 102.605 186.972 114.042 172.981 114.042H168.813C154.822 114.042 143.374 102.605 143.374 88.627V64.4122C143.374 49.8041 155.336 37.8506 169.957 37.8506H172.981C186.972 37.8506 198.42 49.2879 198.42 63.2659V88.627V88.6242ZM172.981 36.5817H169.959C154.599 36.5817 142.102 49.0655 142.102 64.4122V88.627C142.102 103.341 154.084 115.311 168.813 115.311H172.981C187.707 115.311 199.692 103.341 199.692 88.627V63.2659C199.692 48.5523 187.707 36.5817 172.981 36.5817V36.5817Z" fill="#757575"/>
<path fill-rule="evenodd" clip-rule="evenodd" d="M197.148 88.627C197.148 101.941 186.306 112.771 172.981 112.771H168.813C155.488 112.771 144.649 101.941 144.649 88.627V64.4122C144.649 50.4684 156.002 39.1223 169.962 39.1223H172.984C186.309 39.1223 197.151 49.9523 197.151 63.2659V88.627H197.148ZM172.981 37.8506H169.959C155.336 37.8506 143.374 49.804 143.374 64.4122V88.627C143.374 102.605 154.822 114.042 168.813 114.042H172.981C186.972 114.042 198.42 102.605 198.42 88.627V63.2659C198.42 49.2879 186.972 37.8506 172.981 37.8506V37.8506Z" fill="#757575"/>
<path fill-rule="evenodd" clip-rule="evenodd" d="M163.185 71.5352C163.297 71.9761 163.293 72.4385 163.173 72.8773C163.052 73.316 162.819 73.7159 162.497 74.0379C162.175 74.3598 161.774 74.5928 161.335 74.7139C160.895 74.8351 160.432 74.8402 159.989 74.7289C159.337 74.5351 158.785 74.0968 158.45 73.5059C158.115 72.915 158.022 72.2176 158.191 71.5598C158.36 70.9021 158.777 70.3352 159.356 69.9781C159.935 69.621 160.63 69.5015 161.296 69.6447C161.752 69.7603 162.169 69.9971 162.502 70.33C162.834 70.6628 163.071 71.0793 163.185 71.5352V71.5352ZM183.696 71.5352C183.809 71.9767 183.805 72.4398 183.684 72.8792C183.563 73.3185 183.33 73.7189 183.007 74.0411C182.684 74.3632 182.283 74.596 181.842 74.7166C181.402 74.8372 180.938 74.8414 180.495 74.7289C179.843 74.5351 179.291 74.0968 178.956 73.5059C178.62 72.915 178.527 72.2176 178.696 71.5598C178.865 70.9021 179.283 70.3352 179.862 69.9781C180.441 69.621 181.136 69.5015 181.801 69.6447C182.259 69.7594 182.677 69.9958 183.011 70.3287C183.345 70.6616 183.581 71.0786 183.696 71.5352V71.5352ZM170.225 87.0929C169.924 87.0933 169.633 86.986 169.405 86.7906C167.976 85.5788 167.304 84.2728 167.413 82.9126C167.57 80.9166 169.365 79.776 169.568 79.6534C169.855 79.501 170.189 79.4638 170.503 79.5493C170.816 79.6348 171.085 79.8365 171.255 80.1133C171.424 80.3901 171.481 80.721 171.414 81.0384C171.347 81.3557 171.161 81.6355 170.894 81.8205C170.66 81.9688 169.991 82.5191 169.945 83.1208C169.902 83.7424 170.522 84.404 171.051 84.8516C171.249 85.0209 171.39 85.2463 171.455 85.4977C171.521 85.7491 171.507 86.0144 171.418 86.2582C171.328 86.5019 171.165 86.7125 170.952 86.8617C170.739 87.0109 170.486 87.0915 170.225 87.0929" fill="#757575"/>
<path fill-rule="evenodd" clip-rule="evenodd" d="M162.619 84.3384C162.619 85.861 159.704 87.0929 156.102 87.0929C152.501 87.0929 149.585 85.861 149.585 84.3384C149.585 82.8185 152.501 81.5867 156.102 81.5867C159.704 81.5867 162.619 82.8185 162.619 84.3384ZM192.086 84.3384C192.086 85.861 189.17 87.0929 185.569 87.0929C181.967 87.0929 179.049 85.861 179.049 84.3384C179.049 82.8185 181.967 81.5867 185.566 81.5867C189.167 81.5867 192.083 82.8185 192.083 84.3384" fill="#C6C4C3"/>
<path d="M178.526 46.867L178.946 46.5962L178.443 45.8148L178.068 46.6656C176.513 50.1982 173.597 53.0542 170.048 55.3528C166.501 57.6502 162.353 59.3705 158.385 60.6426C154.42 61.914 150.652 62.7326 147.873 63.2334C146.485 63.4836 145.345 63.6542 144.553 63.7622C144.234 63.8056 143.972 63.8389 143.773 63.8631C143.733 63.6494 143.682 63.3614 143.629 63.0086C143.504 62.1778 143.364 60.989 143.304 59.5636C143.184 56.7089 143.386 52.9271 144.661 49.1788C145.934 45.4375 148.274 41.7334 152.437 39.0025C156.603 36.269 162.639 34.4811 171.356 34.6578C180.113 34.8354 186.114 36.7802 190.203 39.5524C194.288 42.321 196.506 45.9415 197.653 49.5495C198.802 53.1657 198.876 56.7714 198.658 59.4833C198.549 60.8372 198.368 61.9628 198.214 62.7482C198.143 63.1133 198.078 63.4045 198.028 63.6106C196.171 63.5936 194.114 62.6753 192.02 61.2006C189.801 59.6378 187.608 57.4994 185.664 55.3291C183.722 53.1615 182.041 50.9768 180.846 49.3327C180.248 48.5111 179.772 47.8255 179.446 47.346C179.283 47.1062 179.158 46.918 179.073 46.7901C179.031 46.7262 178.999 46.6773 178.978 46.6446L178.954 46.6079L178.948 46.5988L178.946 46.5967L178.946 46.5963L178.526 46.867Z" fill="#9B959A" stroke="#7A726A"/>
<path fill-rule="evenodd" clip-rule="evenodd" d="M154.827 70.8366C154.615 70.8358 154.407 70.7823 154.221 70.681C154.035 70.5796 153.877 70.4336 153.762 70.2561C153.647 70.0786 153.578 69.8752 153.561 69.6644C153.544 69.4536 153.581 69.242 153.667 69.0487C154.599 66.9586 157.989 63.5282 164.125 65.4958C164.448 65.5986 164.716 65.8249 164.871 66.1249C165.026 66.4249 165.055 66.774 164.952 67.0955C164.848 67.4169 164.622 67.6843 164.321 67.8388C164.02 67.9933 163.67 68.0224 163.348 67.9195C157.814 66.1402 156.065 69.9213 155.991 70.0838C155.891 70.3083 155.728 70.4991 155.521 70.6327C155.315 70.7664 155.074 70.8372 154.827 70.8366ZM186.632 70.8366C186.387 70.8368 186.147 70.7664 185.941 70.6339C185.735 70.5013 185.572 70.3123 185.472 70.0895C185.28 69.6789 183.471 66.1972 178.111 67.9167C177.793 68.0069 177.452 67.9701 177.161 67.8143C176.869 67.6584 176.65 67.3956 176.549 67.0813C176.448 66.7671 176.473 66.426 176.62 66.1302C176.766 65.8343 177.022 65.6068 177.334 65.4958C183.479 63.5282 186.861 66.9586 187.792 69.0487C187.878 69.242 187.915 69.4536 187.898 69.6644C187.882 69.8752 187.813 70.0786 187.697 70.2561C187.582 70.4336 187.424 70.5796 187.238 70.681C187.052 70.7823 186.844 70.8358 186.632 70.8366" fill="#757575"/>
<path fill-rule="evenodd" clip-rule="evenodd" d="M143.997 88.4588C145.189 97.2071 152.458 103.295 154.956 95.3708C157.46 87.4436 181.015 83.5143 189.579 95.3708C194.026 101.53 198.48 95.3708 198.48 88.4588C210.931 93.4346 195.364 130.507 167.564 126.469C166.089 128.348 167.615 130.133 165.443 130.507C163.271 130.883 160.224 128.3 156.054 122.543C154.945 121.014 153.938 130.906 153.555 130.507C153.338 130.281 145.443 121.391 148.187 117.182C140.493 107.855 138.743 94.8375 143.997 88.4588Z" fill="#9B959A" stroke="#7A726A"/>
<path fill-rule="evenodd" clip-rule="evenodd" d="M170.974 101.097C166.326 101.097 163.014 99.9075 162.808 99.8305C162.655 99.7781 162.514 99.6953 162.394 99.5872C162.273 99.4791 162.176 99.3479 162.108 99.2014C162.04 99.0549 162.002 98.8961 161.997 98.7347C161.992 98.5733 162.02 98.4126 162.079 98.2622C162.209 97.956 162.453 97.7121 162.759 97.5818C163.066 97.4514 163.411 97.4449 163.722 97.5635C163.791 97.5892 170.625 100.016 178.114 97.5493C178.429 97.4415 178.774 97.4597 179.075 97.6001C179.377 97.7405 179.612 97.9921 179.732 98.3021C179.785 98.4549 179.806 98.6168 179.795 98.778C179.783 98.9392 179.74 99.0965 179.666 99.2405C179.592 99.3845 179.49 99.5122 179.366 99.616C179.242 99.7198 179.098 99.7976 178.943 99.8447C176.37 100.682 173.68 101.105 170.974 101.097V101.097ZM174.301 106.032H167.464C167.127 106.032 166.803 105.899 166.565 105.661C166.326 105.423 166.192 105.1 166.192 104.764C166.192 104.427 166.326 104.104 166.565 103.866C166.803 103.628 167.127 103.495 167.464 103.495H174.301C174.639 103.495 174.962 103.628 175.201 103.866C175.439 104.104 175.573 104.427 175.573 104.764C175.573 105.1 175.439 105.423 175.201 105.661C174.962 105.899 174.639 106.032 174.301 106.032" fill="#757575"/>
</svg>
