<svg width="282" height="235" viewBox="0 0 282 235" fill="none" xmlns="http://www.w3.org/2000/svg">
<path fill-rule="evenodd" clip-rule="evenodd" d="M125.05 83.7809C111.206 90.71 106.592 101.385 98.9634 108.008C91.9153 114.132 68.8627 98.8925 68.8627 98.8925C68.8627 98.8925 60.2156 91.4578 59.3828 94.3941C59.1543 95.206 61.2721 97.378 59.3828 98.8949C54.4429 102.861 55.5042 96.4831 46.2241 101.774C52.882 108.141 64.8485 108.008 64.8485 108.008C64.8485 108.008 82.5448 119.212 98.9634 121.145C109.507 113.062 104.015 116.164 114.026 105.387V186.965H168.83C170.52 161.454 169.449 131.183 169.449 108.808C176.49 116.63 182.155 116.793 182.155 116.793C182.155 116.793 212.251 104.815 213.001 106.664C213.417 107.687 222.069 116.793 225.434 109.511C227.209 110.681 214.719 103.593 220.128 102.902C227.204 99.7732 213.67 98.8949 213.67 98.8949C213.67 98.8949 193.798 102.624 182.153 106.664C170.253 91.631 170.039 83.7809 158.039 83.7809H125.05ZM126.087 187.511V223.493C126.087 223.493 118.147 223.493 111.365 234.451C121.945 234.451 136.814 234.085 136.814 234.085L137.057 187.511H126.087ZM156.328 187.511V223.493C156.328 223.493 164.266 223.493 171.05 234.451C160.471 234.451 145.602 234.085 145.602 234.085L145.359 187.511H156.328Z" fill="white" stroke="#7A726A"/>
<path d="M157.625 83.083C157.625 83.083 154.82 96.3753 166.625 107.05M147.446 83.083C147.446 83.083 145.435 137.966 114.643 142.066L147.446 83.083Z" stroke="#7A726A"/>
<path fill-rule="evenodd" clip-rule="evenodd" d="M146.553 83.8236C146.553 83.8236 145.487 138.644 113.992 142.699V186.723C136.003 186.756 169.375 186.756 169.375 186.756V108.098C154.813 99.5714 157.252 83.8236 157.252 83.8236H146.553Z" fill="#AF492C" stroke="#7A726A"/>
<path d="M138.358 179.533C143.329 179.533 147.358 175.513 147.358 170.555C147.358 165.597 143.329 161.577 138.358 161.577C133.388 161.577 129.359 165.597 129.359 170.555C129.359 175.513 133.388 179.533 138.358 179.533Z" fill="#7A726A" stroke="#9B959A"/>
<path fill-rule="evenodd" clip-rule="evenodd" d="M128.255 137.265C128.255 137.265 136.015 163.36 114.383 157.352V143.24C121.971 140.218 128.255 137.265 128.255 137.265Z" fill="#7A726A" stroke="#9B959A"/>
<path d="M145.359 151.605C148.672 151.605 151.358 148.926 151.358 145.621C151.358 142.316 148.672 139.636 145.359 139.636C142.046 139.636 139.36 142.316 139.36 145.621C139.36 148.926 142.046 151.605 145.359 151.605Z" fill="#7A726A" stroke="#9B959A"/>
<path d="M157.356 115.699C159.565 115.699 161.356 113.912 161.356 111.709C161.356 109.505 159.565 107.718 157.356 107.718C155.147 107.718 153.356 109.505 153.356 111.709C153.356 113.912 155.147 115.699 157.356 115.699Z" fill="#7A726A" stroke="#9B959A"/>
<path fill-rule="evenodd" clip-rule="evenodd" d="M169.052 116.905C169.052 116.905 146.018 133.977 169.052 147.94V116.905Z" fill="#7A726A" stroke="#9B959A"/>
<path fill-rule="evenodd" clip-rule="evenodd" d="M61.5886 158.919C61.3916 158.919 61.1964 158.88 61.0144 158.805C60.8324 158.729 60.667 158.619 60.5278 158.48C60.3885 158.341 60.2782 158.176 60.203 157.994C60.1278 157.812 60.0892 157.618 60.0895 157.421V152.215C60.0895 151.819 60.2475 151.438 60.5286 151.158C60.8097 150.877 61.191 150.72 61.5886 150.72C61.9862 150.72 62.3675 150.877 62.6486 151.158C62.9298 151.438 63.0877 151.819 63.0877 152.215V157.421C63.088 157.618 63.0495 157.812 62.9743 157.994C62.8991 158.176 62.7887 158.341 62.6495 158.48C62.5102 158.619 62.3449 158.729 62.1628 158.805C61.9808 158.88 61.7857 158.919 61.5886 158.919ZM53.9314 162.088C53.7342 162.088 53.5389 162.049 53.3568 161.974C53.1746 161.899 53.0092 161.788 52.8701 161.649L49.1867 157.969C49.0471 157.83 48.9364 157.666 48.8608 157.484C48.7851 157.302 48.7461 157.108 48.7459 156.911C48.7457 156.714 48.7843 156.52 48.8595 156.338C48.9347 156.156 49.0451 155.991 49.1843 155.852C49.3235 155.713 49.4888 155.602 49.6708 155.527C49.8528 155.451 50.048 155.412 50.245 155.412C50.4421 155.412 50.6373 155.45 50.8195 155.525C51.0017 155.601 51.1673 155.711 51.3068 155.85L54.9903 159.529C55.1996 159.739 55.3421 160.005 55.3998 160.296C55.4576 160.586 55.428 160.887 55.3148 161.16C55.2017 161.434 55.0099 161.668 54.7638 161.833C54.5176 161.998 54.228 162.087 53.9314 162.088ZM50.7595 169.739H45.5484C45.1502 169.739 44.7683 169.581 44.4867 169.3C44.2051 169.019 44.0469 168.638 44.0469 168.241C44.0469 167.843 44.2051 167.463 44.4867 167.182C44.7683 166.901 45.1502 166.743 45.5484 166.743H50.7595C51.1577 166.743 51.5396 166.901 51.8212 167.182C52.1028 167.463 52.261 167.843 52.261 168.241C52.261 168.638 52.1028 169.019 51.8212 169.3C51.5396 169.581 51.1577 169.739 50.7595 169.739ZM50.2479 181.069C49.9511 181.068 49.6612 180.979 49.4146 180.815C49.1681 180.65 48.976 180.416 48.8625 180.142C48.7491 179.868 48.7193 179.567 48.777 179.277C48.8346 178.987 48.9772 178.72 49.1867 178.51L52.8701 174.83C53.1573 174.579 53.53 174.445 53.9122 174.458C54.2944 174.47 54.6575 174.627 54.9276 174.898C55.1977 175.168 55.3545 175.53 55.3661 175.912C55.3778 176.293 55.2434 176.664 54.9903 176.95L51.3068 180.63C51.1681 180.769 51.0031 180.879 50.8213 180.955C50.6396 181.03 50.4447 181.069 50.2479 181.069ZM61.5886 185.764C61.3914 185.764 61.196 185.725 61.0138 185.65C60.8317 185.574 60.6662 185.464 60.5269 185.324C60.3877 185.185 60.2773 185.02 60.2023 184.838C60.1272 184.656 60.0889 184.461 60.0895 184.264V179.061C60.0895 178.664 60.2475 178.284 60.5286 178.003C60.8097 177.723 61.191 177.565 61.5886 177.565C61.9862 177.565 62.3675 177.723 62.6486 178.003C62.9298 178.284 63.0877 178.664 63.0877 179.061V184.264C63.0883 184.461 63.05 184.656 62.975 184.838C62.8999 185.02 62.7896 185.185 62.6503 185.324C62.5111 185.464 62.3456 185.574 62.1634 185.65C61.9812 185.725 61.7859 185.764 61.5886 185.764ZM72.9269 181.069C72.7301 181.069 72.5353 181.03 72.3536 180.955C72.1719 180.879 72.0069 180.769 71.8681 180.63L68.1846 176.95C67.9354 176.664 67.8044 176.294 67.8177 175.914C67.8311 175.535 67.988 175.175 68.2567 174.907C68.5254 174.639 68.8861 174.482 69.2661 174.468C69.6461 174.454 70.0172 174.585 70.3047 174.833L73.9882 178.512C74.1969 178.722 74.3387 178.989 74.3959 179.279C74.4531 179.569 74.4232 179.869 74.3098 180.143C74.1964 180.416 74.0047 180.649 73.7586 180.814C73.5126 180.979 73.2233 181.067 72.9269 181.069Z" fill="#7A726A"/>
<path fill-rule="evenodd" clip-rule="evenodd" d="M77.6264 169.741H72.4153C72.0168 169.741 71.6346 169.583 71.3528 169.302C71.071 169.021 70.9127 168.639 70.9127 168.242C70.9127 167.844 71.071 167.463 71.3528 167.182C71.6346 166.901 72.0168 166.743 72.4153 166.743H77.6264C78.025 166.743 78.4072 166.901 78.689 167.182C78.9708 167.463 79.1291 167.844 79.1291 168.242C79.1291 168.639 78.9708 169.021 78.689 169.302C78.4072 169.583 78.025 169.741 77.6264 169.741" fill="#7A726A"/>
<path fill-rule="evenodd" clip-rule="evenodd" d="M69.2458 162.088C68.949 162.087 68.6591 161.999 68.4126 161.834C68.166 161.669 67.9739 161.435 67.8605 161.161C67.747 160.888 67.7172 160.587 67.7749 160.296C67.8326 160.006 67.9751 159.739 68.1846 159.529L71.868 155.849C72.1553 155.598 72.5279 155.464 72.9101 155.477C73.2923 155.489 73.6554 155.647 73.9255 155.917C74.1956 156.187 74.3524 156.549 74.3641 156.931C74.3757 157.312 74.2413 157.683 73.9882 157.969L70.3047 161.649C70.166 161.788 70.001 161.898 69.8193 161.974C69.6375 162.049 69.4426 162.088 69.2458 162.088" fill="#7A726A"/>
<path fill-rule="evenodd" clip-rule="evenodd" d="M237.55 57.1849C237.353 57.1849 237.158 57.1461 236.976 57.0708C236.794 56.9955 236.629 56.8851 236.489 56.746C236.35 56.6069 236.24 56.4418 236.165 56.26C236.089 56.0783 236.051 55.8836 236.051 55.687V50.4813C236.051 50.0846 236.209 49.7043 236.49 49.4238C236.771 49.1433 237.153 48.9858 237.55 48.9858C237.948 48.9858 238.329 49.1433 238.61 49.4238C238.891 49.7043 239.049 50.0846 239.049 50.4813V55.687C239.049 56.0836 238.891 56.464 238.61 56.7445C238.329 57.025 237.948 57.1825 237.55 57.1825V57.1849ZM229.895 60.3539C229.698 60.3542 229.503 60.3155 229.321 60.2401C229.139 60.1648 228.973 60.0542 228.834 59.9148L225.151 56.2354C224.869 55.9549 224.71 55.5742 224.71 55.1771C224.709 54.78 224.867 54.399 225.148 54.1179C225.429 53.8368 225.811 53.6787 226.209 53.6782C226.607 53.6778 226.989 53.8351 227.271 54.1156L230.954 57.795C231.164 58.0047 231.306 58.2717 231.364 58.5621C231.422 58.8526 231.392 59.1536 231.278 59.4272C231.165 59.7008 230.973 59.9348 230.726 60.0997C230.48 60.2646 230.19 60.3531 229.893 60.3539H229.895ZM226.721 68.0047H221.512C221.114 68.0047 220.732 67.8469 220.451 67.566C220.169 67.285 220.011 66.9041 220.011 66.5068C220.011 66.1095 220.169 65.7286 220.451 65.4476C220.732 65.1667 221.114 65.0089 221.512 65.0089H226.724C227.122 65.0089 227.504 65.1667 227.785 65.4476C228.067 65.7286 228.225 66.1095 228.225 66.5068C228.225 66.9041 228.067 67.285 227.785 67.566C227.504 67.8469 227.122 68.0047 226.724 68.0047H226.721ZM226.21 79.3348C225.913 79.334 225.623 79.2455 225.376 79.0806C225.13 78.9157 224.938 78.6817 224.824 78.4081C224.711 78.1345 224.681 77.8335 224.739 77.5431C224.796 77.2526 224.939 76.9856 225.148 76.7759L228.834 73.0965C229.121 72.8446 229.494 72.7113 229.876 72.7238C230.258 72.7363 230.622 72.8936 230.892 73.1636C231.162 73.4337 231.319 73.7962 231.33 74.1776C231.342 74.5589 231.207 74.9303 230.954 75.2163L227.271 78.8957C227.132 79.0352 226.966 79.1459 226.784 79.2212C226.602 79.2966 226.407 79.3352 226.21 79.3348V79.3348ZM237.55 84.0278C237.353 84.0278 237.158 83.9891 236.977 83.914C236.795 83.8388 236.629 83.7287 236.49 83.5898C236.351 83.4509 236.241 83.2861 236.165 83.1046C236.09 82.9232 236.051 82.7287 236.051 82.5323V77.3266C236.051 76.93 236.209 76.5496 236.49 76.2691C236.771 75.9886 237.153 75.8311 237.55 75.8311C237.948 75.8311 238.329 75.9886 238.61 76.2691C238.891 76.5496 239.049 76.93 239.049 77.3266V82.5299C239.05 82.7265 239.011 82.9213 238.936 83.103C238.861 83.2847 238.75 83.4498 238.611 83.589C238.472 83.7281 238.307 83.8384 238.125 83.9138C237.942 83.9891 237.747 84.0278 237.55 84.0278V84.0278ZM248.891 79.3348C248.694 79.3351 248.499 79.2964 248.316 79.2211C248.134 79.1457 247.969 79.0351 247.83 78.8957L244.149 75.2163C243.899 74.93 243.768 74.56 243.781 74.1809C243.794 73.8018 243.95 73.4416 244.218 73.173C244.487 72.9043 244.847 72.747 245.227 72.7328C245.607 72.7186 245.979 72.8486 246.266 73.0965L249.952 76.7759C250.162 76.9856 250.304 77.2526 250.362 77.5431C250.42 77.8335 250.39 78.1345 250.276 78.4081C250.163 78.6817 249.971 78.9157 249.724 79.0806C249.478 79.2455 249.188 79.334 248.891 79.3348" fill="#7A726A"/>
<path fill-rule="evenodd" clip-rule="evenodd" d="M253.588 68.0046H248.377C247.979 68.0046 247.596 67.8467 247.315 67.5656C247.033 67.2845 246.874 66.9032 246.874 66.5056C246.874 66.108 247.033 65.7267 247.315 65.4456C247.596 65.1645 247.979 65.0065 248.377 65.0065H253.588C253.987 65.0065 254.369 65.1645 254.651 65.4456C254.932 65.7267 255.091 66.108 255.091 66.5056C255.091 66.9032 254.932 67.2845 254.651 67.5656C254.369 67.8467 253.987 68.0046 253.588 68.0046" fill="#7A726A"/>
<path fill-rule="evenodd" clip-rule="evenodd" d="M245.208 60.3539C244.911 60.353 244.621 60.2646 244.374 60.0997C244.128 59.9348 243.936 59.7008 243.822 59.4272C243.709 59.1536 243.679 58.8526 243.737 58.5621C243.794 58.2716 243.937 58.0047 244.146 57.7949L247.832 54.1155C248.119 53.8637 248.492 53.7304 248.874 53.7429C249.256 53.7553 249.619 53.9126 249.89 54.1827C250.16 54.4527 250.317 54.8153 250.328 55.1966C250.34 55.5779 250.205 55.9494 249.952 56.2353L246.269 59.9147C246.13 60.0543 245.964 60.1649 245.782 60.2403C245.6 60.3157 245.405 60.3543 245.208 60.3539" fill="#7A726A"/>
<path d="M211.366 137.419V146.285M206.924 141.851H215.811H206.924Z" stroke="#7A726A" stroke-linecap="square"/>
<path d="M135.817 0.738281V9.60442M131.372 5.17254H140.262H131.372Z" stroke="#7A726A" stroke-linecap="square"/>
<path d="M93.288 43.5165C93.288 47.319 90.1967 50.4038 86.3806 50.4038C82.5645 50.4038 79.4732 47.319 79.4732 43.5165C79.4732 39.7141 82.5645 36.6293 86.3806 36.6293C90.1967 36.6293 93.288 39.7141 93.288 43.5165Z" fill="#2D2723" stroke="#7A726A"/>
<path d="M205.346 35.2414C210.247 35.2414 214.219 31.2719 214.219 26.3753C214.219 21.4787 210.247 17.5092 205.346 17.5092C200.446 17.5092 196.473 21.4787 196.473 26.3753C196.473 31.2719 200.446 35.2414 205.346 35.2414Z" fill="#AF492C"/>
<path d="M1.05884 234.389H281" stroke="#7A726A" stroke-linecap="square"/>
<path fill-rule="evenodd" clip-rule="evenodd" d="M162.86 51.7037C162.86 51.7037 171.491 55.8033 162.86 62.2814Z" fill="#E5D4C3"/>
<path fill-rule="evenodd" clip-rule="evenodd" d="M163.496 63.1289L162.225 61.4364C163.881 60.1925 165.818 58.3053 165.625 56.3825C165.399 54.1393 162.437 52.6747 162.406 52.6628L163.315 50.7495C163.481 50.8278 167.384 52.7198 167.731 56.1713C167.967 58.5023 166.541 60.8429 163.496 63.1265" fill="#757575"/>
<path fill-rule="evenodd" clip-rule="evenodd" d="M116.931 62.2814C108.298 55.8009 116.931 51.7037 116.931 51.7037Z" fill="#E5D4C3"/>
<path fill-rule="evenodd" clip-rule="evenodd" d="M116.296 63.1289C113.25 60.8429 111.827 58.5023 112.06 56.1736C112.408 52.7174 116.312 50.8255 116.477 50.7471L117.388 52.658C117.359 52.6723 114.39 54.1227 114.168 56.3873C113.978 58.3077 115.913 60.1925 117.569 61.434L116.296 63.1265V63.1289Z" fill="#757575"/>
<path fill-rule="evenodd" clip-rule="evenodd" d="M141.683 30.1948H139.167C127.546 30.1948 118.095 39.6377 118.095 51.248V71.4063C118.095 82.4896 127.118 91.5053 138.211 91.5053H141.685C152.776 91.5053 161.801 82.4896 161.801 71.4063V50.2937C161.801 39.2081 152.776 30.1948 141.683 30.1948" fill="white"/>
<path fill-rule="evenodd" clip-rule="evenodd" d="M162.86 71.4039C162.86 83.0427 153.33 92.564 141.683 92.564H138.213C126.566 92.564 117.036 83.0427 117.036 71.4063V51.248C117.036 39.087 126.994 29.1361 139.165 29.1361H141.683C153.33 29.1361 162.86 38.6574 162.86 50.2937V71.4063V71.4039ZM141.683 28.0797H139.167C126.38 28.0797 115.977 38.4722 115.977 51.248V71.4063C115.977 83.6551 125.952 93.6203 138.213 93.6203H141.683C153.942 93.6203 163.919 83.6551 163.919 71.4063V50.2937C163.919 38.0449 153.942 28.0797 141.683 28.0797V28.0797Z" fill="#757575"/>
<path fill-rule="evenodd" clip-rule="evenodd" d="M161.801 71.4063C161.801 82.4896 152.776 91.5053 141.683 91.5053H138.213C127.12 91.5053 118.097 82.4896 118.097 71.4063V51.248C118.097 39.6401 127.548 30.1948 139.17 30.1948H141.685C152.778 30.1948 161.804 39.2105 161.804 50.2937V71.4063H161.801ZM141.683 29.136H139.167C126.994 29.136 117.036 39.087 117.036 51.248V71.4063C117.036 83.0427 126.566 92.564 138.213 92.564H141.683C153.33 92.564 162.86 83.0427 162.86 71.4063V50.2937C162.86 38.6574 153.33 29.136 141.683 29.136V29.136Z" fill="#757575"/>
<path fill-rule="evenodd" clip-rule="evenodd" d="M133.528 57.1778C133.622 57.5448 133.618 57.9298 133.518 58.295C133.417 58.6602 133.223 58.9932 132.955 59.2612C132.687 59.5292 132.354 59.7232 131.988 59.824C131.622 59.9248 131.236 59.9291 130.868 59.8364C130.325 59.6751 129.865 59.3102 129.586 58.8184C129.307 58.3265 129.23 57.7458 129.37 57.1983C129.511 56.6507 129.859 56.1788 130.341 55.8815C130.823 55.5843 131.401 55.4848 131.955 55.604C132.335 55.7002 132.682 55.8974 132.959 56.1744C133.236 56.4515 133.433 56.7982 133.528 57.1778V57.1778ZM150.603 57.1778C150.697 57.5453 150.694 57.9309 150.593 58.2966C150.492 58.6624 150.298 58.9957 150.029 59.2639C149.761 59.5321 149.426 59.7259 149.06 59.8262C148.693 59.9266 148.307 59.9301 147.938 59.8364C147.395 59.6751 146.936 59.3102 146.657 58.8184C146.377 58.3265 146.3 57.7458 146.441 57.1983C146.581 56.6507 146.929 56.1788 147.411 55.8815C147.893 55.5843 148.472 55.4848 149.026 55.604C149.407 55.6995 149.755 55.8963 150.033 56.1734C150.31 56.4505 150.508 56.7977 150.603 57.1778V57.1778ZM139.389 70.1292C139.138 70.1296 138.896 70.0403 138.706 69.8776C137.516 68.8687 136.957 67.7815 137.047 66.6492C137.178 64.9876 138.673 64.0381 138.841 63.936C139.08 63.8091 139.359 63.7781 139.62 63.8493C139.881 63.9205 140.105 64.0885 140.246 64.3189C140.387 64.5493 140.434 64.8248 140.378 65.089C140.323 65.3531 140.168 65.5861 139.946 65.7401C139.75 65.8635 139.194 66.3217 139.156 66.8225C139.12 67.34 139.636 67.8907 140.076 68.2634C140.241 68.4044 140.358 68.592 140.413 68.8013C140.467 69.0105 140.456 69.2314 140.381 69.4343C140.307 69.6373 140.171 69.8126 139.994 69.9368C139.817 70.0609 139.605 70.1281 139.389 70.1292" fill="#757575"/>
<path fill-rule="evenodd" clip-rule="evenodd" d="M133.057 67.8361C133.057 69.1037 130.63 70.1292 127.632 70.1292C124.633 70.1292 122.206 69.1037 122.206 67.8361C122.206 66.5709 124.633 65.5454 127.632 65.5454C130.63 65.5454 133.057 66.5709 133.057 67.8361ZM157.587 67.8361C157.587 69.1037 155.16 70.1292 152.162 70.1292C149.164 70.1292 146.734 69.1037 146.734 67.8361C146.734 66.5709 149.164 65.5454 152.16 65.5454C155.158 65.5454 157.585 66.5709 157.585 67.8361" fill="#C6C4C3"/>
<path d="M146.299 36.642L146.719 36.3712L146.216 35.5898L145.841 36.4406C144.556 39.3613 142.142 41.7277 139.196 43.6359C136.251 45.5431 132.806 46.9724 129.507 48.0301C126.21 49.0871 123.077 49.7678 120.766 50.1842C119.612 50.3923 118.664 50.5341 118.006 50.6239C117.781 50.6545 117.59 50.6791 117.436 50.6982C117.405 50.5311 117.369 50.3191 117.331 50.0671C117.228 49.3779 117.111 48.3912 117.061 47.2081C116.961 44.8379 117.129 41.7008 118.187 38.5935C119.242 35.4932 121.179 32.4264 124.626 30.165C128.077 27.901 133.084 26.415 140.328 26.5619C147.607 26.7095 152.585 28.3258 155.973 30.6221C159.356 32.9148 161.192 35.912 162.142 38.9005C163.094 41.8971 163.156 44.8871 162.975 47.1381C162.884 48.2615 162.734 49.1954 162.607 49.8467C162.555 50.1126 162.507 50.3311 162.468 50.4958C160.964 50.4609 159.294 49.7124 157.581 48.5059C155.741 47.2101 153.92 45.4351 152.303 43.6307C150.689 41.8289 149.292 40.0126 148.298 38.6454C147.801 37.9622 147.405 37.3922 147.134 36.9936C146.999 36.7944 146.895 36.638 146.824 36.5318C146.789 36.4787 146.763 36.4382 146.745 36.4111L146.725 36.3807L146.72 36.3733L146.719 36.3716L146.719 36.3712L146.299 36.642Z" fill="#9B959A" stroke="#7A726A"/>
<path fill-rule="evenodd" clip-rule="evenodd" d="M126.57 56.5962C126.394 56.5955 126.22 56.551 126.066 56.4666C125.911 56.3822 125.779 56.2607 125.683 56.1129C125.587 55.9651 125.53 55.7958 125.516 55.6204C125.502 55.4449 125.533 55.2687 125.604 55.1078C126.38 53.3678 129.202 50.5121 134.311 52.15C134.579 52.2357 134.802 52.4241 134.931 52.6738C135.06 52.9236 135.084 53.2142 134.999 53.4817C134.913 53.7493 134.724 53.9719 134.474 54.1006C134.223 54.2292 133.932 54.2534 133.664 54.1678C129.057 52.6865 127.601 55.8342 127.539 55.9695C127.456 56.1564 127.32 56.3152 127.148 56.4264C126.976 56.5377 126.775 56.5967 126.57 56.5962ZM153.047 56.5962C152.843 56.5963 152.643 56.5377 152.472 56.4274C152.301 56.3171 152.165 56.1597 152.081 55.9742C151.922 55.6324 150.415 52.734 145.954 54.1654C145.689 54.2405 145.405 54.2099 145.162 54.0801C144.92 53.9504 144.737 53.7316 144.653 53.47C144.569 53.2084 144.59 52.9245 144.712 52.6782C144.834 52.4319 145.047 52.2425 145.307 52.15C150.422 50.5121 153.237 53.3678 154.013 55.1078C154.085 55.2687 154.115 55.4449 154.101 55.6204C154.087 55.7958 154.03 55.9651 153.934 56.1129C153.838 56.2607 153.707 56.3822 153.552 56.4666C153.397 56.551 153.224 56.5955 153.047 56.5962" fill="#757575"/>
<path fill-rule="evenodd" clip-rule="evenodd" d="M117.554 71.2662C118.547 78.5491 124.598 83.6171 126.677 77.0203C128.762 70.4212 148.371 67.1501 155.5 77.0203C159.203 82.1477 162.91 77.0203 162.91 71.2662C173.275 75.4085 160.316 106.27 137.173 102.909C135.946 104.473 137.216 105.959 135.408 106.27C133.599 106.584 131.063 104.433 127.591 99.6403C126.668 98.3679 125.83 106.603 125.511 106.27C125.331 106.083 118.758 98.6813 121.043 95.1775C114.637 87.4128 113.181 76.5764 117.554 71.2662Z" fill="#9B959A" stroke="#7A726A"/>
<path fill-rule="evenodd" clip-rule="evenodd" d="M140.012 81.7869C136.143 81.7869 133.385 80.797 133.214 80.7329C133.086 80.6893 132.969 80.6205 132.869 80.5305C132.769 80.4405 132.688 80.3312 132.631 80.2092C132.575 80.0873 132.543 79.9551 132.539 79.8208C132.535 79.6864 132.558 79.5526 132.607 79.4274C132.715 79.1725 132.918 78.9694 133.174 78.8609C133.429 78.7525 133.716 78.747 133.975 78.8458C134.032 78.8671 139.722 80.8872 145.956 78.8339C146.218 78.7442 146.505 78.7594 146.756 78.8762C147.007 78.9931 147.203 79.2026 147.303 79.4606C147.347 79.5878 147.365 79.7226 147.355 79.8568C147.346 79.991 147.309 80.122 147.248 80.2418C147.187 80.3617 147.102 80.468 146.998 80.5544C146.895 80.6408 146.775 80.7056 146.646 80.7448C144.505 81.4421 142.265 81.7939 140.012 81.7869V81.7869ZM142.782 85.896H137.09C136.809 85.896 136.54 85.7847 136.341 85.5866C136.143 85.3885 136.031 85.1198 136.031 84.8396C136.031 84.5595 136.143 84.2908 136.341 84.0927C136.54 83.8946 136.809 83.7833 137.09 83.7833H142.782C143.063 83.7833 143.332 83.8946 143.531 84.0927C143.729 84.2908 143.841 84.5595 143.841 84.8396C143.841 85.1198 143.729 85.3885 143.531 85.5866C143.332 85.7847 143.063 85.896 142.782 85.896" fill="#757575"/>
</svg>
