<svg width="29" height="15" viewBox="0 0 29 15" fill="none" xmlns="http://www.w3.org/2000/svg">
<path fill-rule="evenodd" clip-rule="evenodd" d="M0.327648 14.6853C0.431245 14.7851 0.554315 14.8642 0.689807 14.9182C0.8253 14.9722 0.970553 15 1.11725 15C1.26394 15 1.4092 14.9722 1.54469 14.9182C1.68018 14.8642 1.80325 14.7851 1.90685 14.6853L14.5003 2.58768L27.0937 14.6853C27.1974 14.7849 27.3205 14.8639 27.456 14.9178C27.5915 14.9717 27.7367 14.9994 27.8833 14.9994C28.03 14.9994 28.1752 14.9717 28.3107 14.9178C28.4461 14.8639 28.5692 14.7849 28.6729 14.6853C28.7766 14.5857 28.8589 14.4675 28.915 14.3374C28.9711 14.2072 29 14.0678 29 13.9269C29 13.7861 28.9711 13.6466 28.915 13.5165C28.8589 13.3864 28.7766 13.2681 28.6729 13.1686L15.2899 0.314692C15.1863 0.214939 15.0632 0.135795 14.9277 0.0817953C14.7922 0.0277953 14.647 2.00666e-08 14.5003 2.00666e-08C14.3536 2.00666e-08 14.2083 0.0277953 14.0729 0.0817953C13.9374 0.135795 13.8143 0.214939 13.7107 0.314692L0.327648 13.1686C0.223788 13.2681 0.141387 13.3863 0.0851637 13.5164C0.0289405 13.6465 0 13.786 0 13.9269C0 14.0678 0.0289405 14.2073 0.0851637 14.3375C0.141387 14.4676 0.223788 14.5858 0.327648 14.6853Z" fill="white"/>
</svg>
