<svg width="291" height="300" viewBox="0 0 291 300" fill="none" xmlns="http://www.w3.org/2000/svg">
<rect x="11.4683" width="267.785" height="300" rx="21" fill="white"/>
<path d="M39.9173 184.71C41.4396 184.506 42.6629 184.158 43.5871 183.668C44.5297 183.154 45.2557 182.55 45.7653 181.857C46.2748 181.165 46.5933 180.412 46.7207 179.598C46.8452 178.763 46.8506 177.923 46.7369 177.077C46.6118 176.147 46.362 175.33 45.9877 174.627C45.6133 173.924 45.0854 173.36 44.404 172.935C43.7198 172.489 42.8624 172.195 41.8317 172.054C40.8221 171.91 39.5985 171.935 38.1608 172.128L30.0736 173.216L31.7667 185.806L39.9173 184.71ZM27.5317 154.314L29.2035 166.746L35.4513 165.906C36.7833 165.727 37.9531 165.462 38.9607 165.111C39.9654 164.739 40.7839 164.263 41.4163 163.683C42.0486 163.103 42.4919 162.397 42.7461 161.567C43.0186 160.712 43.0796 159.725 42.9289 158.604C42.7753 157.462 42.486 156.511 42.0608 155.75C41.6568 154.987 41.1049 154.404 40.4052 154.003C39.7055 153.602 38.8552 153.361 37.8542 153.281C36.8503 153.179 35.6824 153.218 34.3504 153.397L27.5317 154.314ZM33.378 146.166C36.4649 145.751 39.137 145.693 41.3943 145.992C43.67 146.267 45.5674 146.852 47.0867 147.745C48.6243 148.614 49.8126 149.768 50.6516 151.205C51.4906 152.642 52.0367 154.301 52.2897 156.183C52.4319 157.24 52.4098 158.276 52.2234 159.291C52.0582 160.304 51.7062 161.287 51.1673 162.242C50.6467 163.173 49.9259 164.056 49.0049 164.89C48.0839 165.724 46.9583 166.479 45.6283 167.153C48.8569 167.472 51.3342 168.366 53.0599 169.834C54.7857 171.302 55.8277 173.369 56.186 176.033C56.4475 177.978 56.31 179.837 55.7735 181.609C55.2581 183.379 54.364 184.974 53.0912 186.394C51.8184 187.813 50.1717 189.014 48.1512 189.996C46.1491 190.954 43.7843 191.617 41.0568 191.983L23.2332 194.38L17.045 148.362L33.378 146.166ZM86.4923 168.083L79.6195 154.671C79.224 153.971 78.7903 153.147 78.3184 152.198C77.8676 151.247 77.416 150.21 76.9636 149.087C76.8268 150.311 76.6575 151.453 76.4557 152.513C76.2722 153.55 76.0822 154.458 75.8857 155.238L72.8233 169.921L86.4923 168.083ZM104.826 183.408L97.4368 184.402C96.6122 184.512 95.9101 184.413 95.3303 184.104C94.7689 183.77 94.3201 183.314 93.9839 182.735L89.6945 174.368L71.3635 176.833L69.4368 186.036C69.2965 186.593 68.9919 187.129 68.523 187.644C68.0513 188.138 67.4137 188.439 66.6103 188.547L59.1574 189.549L70.9513 141.113L80.6876 139.804L104.826 183.408ZM135.493 135.986C135.559 136.472 135.541 136.98 135.44 137.51C135.357 138.017 135.196 138.501 134.957 138.964L116.583 174.239L139.576 171.147L140.578 178.6L105.375 183.334L104.876 179.624C104.816 179.18 104.832 178.736 104.923 178.293C105.011 177.829 105.169 177.399 105.395 177.003L123.816 141.592L101.806 144.552L100.804 137.099L135.024 132.497L135.493 135.986ZM169.557 156.912L162.684 143.501C162.289 142.801 161.855 141.976 161.383 141.028C160.932 140.077 160.481 139.04 160.028 137.917C159.892 139.141 159.722 140.283 159.521 141.343C159.337 142.38 159.147 143.288 158.951 144.067L155.888 158.751L169.557 156.912ZM187.891 172.238L180.502 173.231C179.677 173.342 178.975 173.243 178.395 172.934C177.834 172.6 177.385 172.144 177.049 171.565L172.759 163.198L154.428 165.663L152.502 174.866C152.361 175.423 152.057 175.959 151.588 176.474C151.116 176.968 150.479 177.269 149.675 177.377L142.222 178.379L154.016 129.943L163.752 128.634L187.891 172.238ZM214.094 150.923L207.221 137.512C206.825 136.812 206.392 135.987 205.92 135.039C205.469 134.088 205.017 133.051 204.565 131.928C204.428 133.152 204.259 134.294 204.057 135.354C203.874 136.391 203.684 137.299 203.487 138.078L200.425 152.762L214.094 150.923ZM232.428 166.249L225.038 167.242C224.214 167.353 223.512 167.254 222.932 166.944C222.37 166.611 221.921 166.155 221.585 165.576L217.296 157.209L198.965 159.674L197.038 168.877C196.898 169.434 196.593 169.97 196.124 170.485C195.653 170.979 195.015 171.28 194.212 171.388L186.759 172.39L198.553 123.954L208.289 122.645L232.428 166.249ZM247.827 139.51C249.37 139.302 250.677 138.933 251.746 138.402C252.813 137.849 253.66 137.186 254.288 136.413C254.913 135.619 255.332 134.734 255.545 133.758C255.758 132.782 255.791 131.744 255.643 130.645C255.35 128.467 254.393 126.874 252.773 125.865C251.173 124.853 248.893 124.546 245.933 124.944L240.985 125.61L242.943 140.167L247.827 139.51ZM273.381 160.742L264.786 161.897C263.179 162.113 261.934 161.657 261.05 160.527L250.399 147.591C249.966 147.09 249.51 146.742 249.032 146.548C248.575 146.351 247.923 146.31 247.078 146.423L243.843 146.858L246.201 164.396L236.687 165.676L230.499 119.658L244.96 117.713C248.174 117.281 250.968 117.25 253.343 117.619C255.714 117.968 257.709 118.636 259.327 119.624C260.945 120.612 262.204 121.885 263.102 123.443C263.997 124.98 264.577 126.731 264.842 128.698C265.046 130.22 265.019 131.698 264.76 133.132C264.519 134.542 264.062 135.863 263.388 137.094C262.714 138.326 261.833 139.456 260.744 140.485C259.656 141.514 258.375 142.396 256.903 143.133C257.561 143.388 258.188 143.724 258.782 144.139C259.373 144.533 259.924 145.029 260.435 145.628L273.381 160.742Z" fill="#2D2723"/>
</svg>
